<?xml version="1.0" standalone="no"?>
<!DOCTYPE svg PUBLIC "-//W3C//DTD SVG 20010904//EN"
 "http://www.w3.org/TR/2001/REC-SVG-20010904/DTD/svg10.dtd">
<svg version="1.0" xmlns="http://www.w3.org/2000/svg"
 width="675.000000pt" height="646.000000pt" viewBox="0 0 675.000000 646.000000"
 preserveAspectRatio="xMidYMid meet">

<g transform="translate(0.000000,646.000000) scale(0.100000,-0.100000)"
fill="#000000" stroke="none">
<path d="M3257 6181 c7 -25 -27 -44 -59 -32 -14 5 -57 3 -108 -4 -95 -14 -116
-20 -145 -45 -11 -9 -50 -29 -87 -45 -46 -19 -88 -47 -130 -86 -35 -33 -65
-59 -67 -59 -2 0 -18 -11 -36 -24 -17 -13 -49 -31 -70 -40 -47 -20 -170 -118
-186 -149 -7 -12 -29 -41 -50 -63 -41 -46 -68 -92 -80 -139 -34 -134 -71 -260
-78 -269 -16 -20 -69 -189 -81 -256 -6 -36 -15 -78 -20 -95 -5 -16 -16 -82
-25 -145 -8 -63 -24 -178 -36 -255 -15 -105 -21 -188 -20 -330 0 -244 15 -298
25 -92 8 153 23 269 50 372 8 33 22 108 30 167 26 180 80 320 184 478 96 144
170 219 317 319 141 96 201 123 350 160 168 41 248 50 425 51 234 0 360 -39
572 -181 123 -82 249 -189 314 -267 47 -57 92 -145 139 -272 21 -55 27 -187 9
-204 -8 -8 -14 -24 -14 -35 0 -16 -6 -21 -28 -21 -38 0 -61 -38 -44 -75 7 -14
12 -35 12 -45 0 -11 4 -20 8 -20 11 0 52 -74 52 -94 0 -9 4 -16 9 -16 5 0 12
-19 16 -42 7 -38 29 -80 63 -116 6 -7 12 -22 12 -32 0 -10 6 -20 13 -22 9 -4
12 -43 14 -144 1 -93 -1 -126 -7 -99 -18 93 -30 135 -60 215 -40 111 -64 159
-94 191 -13 15 -38 53 -54 85 -39 77 -126 165 -194 197 -102 48 -170 60 -336
58 -114 -1 -174 -7 -240 -22 -88 -21 -162 -54 -162 -73 -1 -6 -29 -29 -63 -51
-34 -22 -64 -43 -67 -46 -3 -4 -5 -94 -5 -201 0 -167 3 -197 18 -225 10 -18
23 -33 28 -33 5 0 9 -7 9 -15 0 -16 55 -55 77 -55 7 0 39 -16 72 -35 32 -19
64 -35 70 -35 12 0 9 29 -8 86 -5 17 -5 37 -1 44 5 7 4 23 0 35 -6 14 -4 27 3
35 9 10 9 11 -1 6 -23 -14 -24 23 -1 56 24 34 51 59 57 53 2 -2 -5 -14 -17
-26 -22 -23 -36 -57 -28 -65 11 -11 56 9 91 42 20 19 42 34 49 34 7 0 22 -15
34 -34 18 -28 29 -34 73 -40 28 -4 90 -4 137 0 90 7 102 0 44 -29 -21 -10 -42
-12 -82 -6 -213 32 -321 31 -327 -3 -2 -12 3 -18 15 -18 9 0 40 -9 68 -19 240
-91 327 -87 435 22 30 29 45 37 75 37 92 0 208 -73 222 -140 3 -16 9 -28 13
-25 12 7 18 -41 7 -60 -5 -10 -6 -34 -3 -55 4 -24 1 -48 -8 -65 -15 -28 -66
-65 -91 -65 -8 0 -15 -5 -15 -11 0 -6 -8 -8 -18 -5 -26 9 -56 -45 -47 -84 6
-27 4 -30 -19 -30 -20 0 -26 -5 -26 -20 0 -28 -38 -102 -60 -117 -11 -8 -20
-31 -24 -60 -12 -107 -18 -133 -31 -133 -8 0 -15 -12 -17 -27 l-3 -28 -22 35
c-81 132 -146 177 -333 230 -190 54 -180 50 -159 71 10 10 19 24 19 29 0 6 6
10 13 10 15 0 59 45 76 77 6 12 11 48 11 81 0 49 -5 65 -27 95 l-28 37 -87 -3
c-80 -2 -89 0 -115 23 -55 49 -69 53 -145 40 -39 -7 -86 -10 -105 -7 -38 7
-133 -11 -133 -25 0 -4 -9 -8 -21 -8 -11 0 -30 -5 -41 -11 -12 -6 -41 -13 -64
-14 -70 -5 -136 -60 -155 -129 -10 -37 -9 -46 16 -93 15 -28 45 -70 68 -94 23
-23 42 -50 44 -60 3 -19 -36 -51 -77 -64 -74 -23 -220 -115 -268 -169 -18 -20
-43 -58 -56 -84 -43 -84 -52 -83 -60 5 -3 42 -6 98 -6 124 0 26 -5 51 -10 54
-6 4 -8 11 -5 16 4 5 -1 16 -9 24 -16 16 -36 76 -36 107 0 10 -9 23 -19 30
-16 9 -17 14 -6 25 15 15 8 54 -11 66 -11 6 -11 12 -2 27 7 10 9 23 5 27 -5 4
-12 1 -17 -7 -7 -11 -13 -9 -30 13 -17 22 -26 25 -53 20 -17 -4 -39 -16 -49
-27 -11 -13 -17 -16 -18 -8 0 9 -7 11 -21 7 -21 -7 -22 -6 -15 75 7 71 12 88
41 129 18 25 46 53 62 62 30 17 70 19 81 3 4 -5 23 -10 42 -11 19 -1 39 -7 45
-15 5 -7 30 -30 54 -51 64 -54 91 -52 237 14 23 11 49 19 58 19 9 0 28 11 42
25 13 14 28 24 32 23 4 -1 23 2 42 6 21 4 47 3 65 -4 27 -10 32 -9 57 22 15
18 28 38 28 44 0 6 9 19 20 29 11 10 20 24 20 32 0 7 3 13 8 13 22 0 37 71 39
185 1 66 7 142 13 170 10 39 10 50 0 53 -7 3 -22 15 -33 28 -11 13 -26 24 -33
24 -15 0 -101 38 -133 58 -13 9 -33 17 -45 19 -79 10 -378 -7 -444 -26 -41
-12 -69 -34 -159 -123 -40 -40 -73 -80 -73 -90 0 -9 -6 -32 -14 -50 -41 -99
-76 -340 -81 -559 -2 -91 -9 -179 -15 -195 -6 -16 -11 -30 -11 -31 5 -17 -1
-25 -9 -13 -9 13 -12 12 -23 -5 -21 -34 -25 -65 -26 -211 -1 -133 1 -150 39
-298 21 -87 46 -168 54 -181 8 -12 18 -40 22 -61 4 -21 15 -51 26 -66 20 -29
24 -41 58 -158 22 -77 66 -210 80 -245 5 -11 14 -54 21 -95 10 -63 16 -79 43
-102 124 -112 176 -163 176 -175 0 -7 5 -13 10 -13 6 0 10 -12 10 -26 0 -14 4
-22 10 -19 6 3 7 -1 4 -10 -4 -9 -13 -14 -21 -11 -8 3 -20 6 -26 6 -12 0 -47
69 -47 91 0 6 -7 17 -15 25 -13 14 -15 14 -15 0 0 -8 -9 -20 -20 -26 -28 -15
-34 -49 -16 -101 9 -24 16 -66 16 -94 0 -30 7 -61 18 -78 28 -46 236 -220 402
-337 85 -60 173 -125 195 -145 22 -20 59 -47 81 -60 39 -23 185 -75 211 -75 7
0 56 29 108 65 53 36 98 65 100 65 2 0 28 14 57 32 66 39 198 105 398 198 365
170 411 196 442 254 7 12 13 75 14 141 2 66 8 179 14 250 5 72 11 162 11 200
1 92 25 228 51 287 14 33 28 49 49 57 16 6 41 16 57 22 35 13 92 84 92 114 0
13 19 44 45 73 40 44 75 113 75 145 0 15 -19 -5 -34 -35 -6 -12 -27 -31 -46
-40 -39 -19 -121 -23 -150 -8 -30 16 -51 98 -32 127 12 19 109 -10 141 -41 39
-37 63 -33 99 18 37 51 48 79 57 135 6 41 16 65 47 111 32 48 49 287 27 375
-14 54 -55 97 -87 88 -12 -3 -22 -11 -22 -17 0 -7 -19 -23 -42 -36 -24 -13
-47 -29 -51 -37 -4 -7 -17 -13 -27 -13 -27 0 -27 47 0 70 19 16 35 24 95 45
13 5 15 9 8 12 -23 8 -9 185 24 323 12 51 14 92 8 195 -4 72 -9 180 -11 240
-6 192 -55 389 -153 617 -22 53 -41 108 -41 122 0 15 -18 47 -43 78 -25 31
-54 83 -68 121 -19 55 -35 79 -83 125 -33 31 -86 83 -119 115 -32 31 -62 57
-66 57 -4 0 -13 16 -20 35 -7 19 -16 35 -21 35 -5 0 -46 36 -91 81 -72 69 -90
81 -133 91 -36 7 -63 22 -93 49 -25 23 -56 41 -79 45 -21 4 -52 15 -69 26 -17
10 -49 18 -76 18 -46 0 -128 41 -157 78 -10 14 -16 14 -32 4 -24 -15 -47 -16
-52 -1 -2 6 -19 14 -38 18 -22 4 -39 15 -45 29 -12 27 -35 30 -28 3z m1193
-1581 c0 -5 -6 -10 -14 -10 -8 0 -17 -8 -20 -17 -5 -11 -10 -13 -17 -6 -16 16
1 43 27 43 13 0 24 -4 24 -10z m-416 -121 c40 -20 59 -45 77 -104 14 -46 -15
-118 -35 -86 -3 5 -18 11 -33 14 -16 3 -62 15 -103 27 -63 18 -90 21 -165 16
-125 -8 -127 -8 -152 5 -21 11 -43 55 -43 85 0 12 43 28 140 53 19 5 89 10
154 10 101 1 125 -2 160 -20z m-1380 -100 c34 -16 43 -54 20 -84 -13 -17 -27
-20 -112 -21 -112 -1 -145 -7 -216 -40 -71 -33 -86 -32 -86 9 0 19 8 42 20 55
28 29 107 83 138 93 41 13 203 5 236 -12z m1245 -110 c34 -12 60 -23 57 -26
-2 -3 -22 1 -43 8 -52 18 -61 20 -118 29 l-50 7 46 2 c25 0 73 -8 108 -20z
m136 -60 c28 -19 28 -20 5 -13 -34 9 -70 34 -50 34 8 0 29 -9 45 -21z m-455
-3 c0 -3 -4 -8 -10 -11 -5 -3 -10 -1 -10 4 0 6 5 11 10 11 6 0 10 -2 10 -4z
m200 -17 c0 -5 -7 -9 -15 -9 -8 0 -15 7 -15 15 0 9 6 12 15 9 8 -4 15 -10 15
-15z m-1080 -9 c0 -5 -2 -10 -4 -10 -3 0 -8 5 -11 10 -3 6 -1 10 4 10 6 0 11
-4 11 -10z m115 -80 c25 -48 17 -56 -13 -14 -16 21 -41 45 -55 53 -15 8 -27
18 -27 23 0 18 80 -34 95 -62z m1114 56 c9 -10 8 -16 -4 -26 -20 -16 -38 -1
-29 23 8 21 18 22 33 3z m-1374 -26 c4 -6 -5 -10 -20 -10 -15 0 -24 4 -20 10
3 6 12 10 20 10 8 0 17 -4 20 -10z m160 -22 c14 -6 25 -14 25 -18 0 -10 -47
-30 -70 -30 -23 0 -24 1 -8 35 13 28 17 30 53 13z m-295 -73 c0 -19 -1 -18
-22 3 -19 19 -21 24 -8 32 17 10 30 -4 30 -35z m334 8 c4 -4 -32 -15 -81 -25
-48 -9 -92 -13 -96 -9 -9 9 57 29 113 34 19 2 40 5 46 5 6 1 14 -1 18 -5z
m-394 -69 c0 -8 -4 -12 -10 -9 -5 3 -10 10 -10 16 0 5 5 9 10 9 6 0 10 -7 10
-16z m420 -54 c0 -5 -4 -10 -10 -10 -5 0 -10 5 -10 10 0 6 5 10 10 10 6 0 10
-4 10 -10z m-615 -290 c3 -5 1 -10 -4 -10 -6 0 -11 5 -11 10 0 6 2 10 4 10 3
0 8 -4 11 -10z m1109 -11 c-3 -5 -20 -9 -37 -9 l-32 1 24 13 c26 14 55 11 45
-5z m-246 -28 c10 -6 9 -13 -7 -32 l-20 -24 -22 24 c-18 19 -19 25 -8 32 18
11 40 11 57 0z m332 -142 c130 -40 210 -87 293 -169 70 -71 94 -110 66 -110
-6 0 -37 20 -69 45 -32 25 -65 45 -74 45 -8 0 -17 4 -21 9 -3 6 -25 13 -50 17
-24 3 -50 12 -56 20 -6 8 -22 14 -34 14 -13 0 -25 6 -28 13 -3 9 -8 9 -17 1
-9 -9 -18 -6 -37 12 -14 13 -31 24 -38 24 -7 0 -25 6 -39 14 l-27 13 23 7 c13
3 39 6 58 7 l35 1 -35 13 c-55 21 -88 17 -146 -16 -48 -27 -57 -29 -91 -20
-55 16 -129 13 -163 -4 -47 -24 -35 -10 16 20 43 25 53 27 115 21 60 -5 75 -3
121 19 65 30 113 31 198 4z m1403 -60 c10 -35 18 -95 18 -134 0 -120 -58 -266
-109 -273 -27 -4 -29 15 -3 42 32 35 70 119 81 177 12 66 2 99 -48 153 -41 45
-42 81 -4 94 15 6 32 9 37 8 6 -2 18 -32 28 -67z m-1753 -59 c0 -5 -16 -10
-36 -10 -21 0 -33 4 -29 10 3 6 19 10 36 10 16 0 29 -4 29 -10z m-110 -16 c0
-12 -37 -44 -52 -44 -10 0 -30 -18 -44 -40 -30 -45 -57 -58 -81 -38 -14 11
-16 11 -8 -1 6 -11 4 -13 -9 -8 -12 5 -31 -8 -66 -45 -55 -58 -67 -46 -22 21
32 47 135 136 140 121 5 -15 20 -12 56 13 28 19 86 33 86 21z m609 -179 c50
-15 116 -54 107 -62 -2 -2 -27 3 -54 12 -33 11 -68 15 -99 12 -159 -17 -239
-29 -247 -38 -6 -5 -21 -9 -35 -9 -15 0 -39 -7 -55 -15 -19 -10 -33 -12 -40
-5 -7 5 -62 11 -122 14 -100 5 -113 3 -149 -17 -44 -25 -54 -47 -30 -70 21
-22 19 -27 -13 -27 -25 0 -111 -52 -120 -72 -2 -5 -19 -8 -37 -8 -27 0 -34 5
-39 25 -8 33 -1 45 30 45 13 0 24 5 24 10 0 6 6 10 14 10 7 0 43 24 79 54 36
29 81 63 99 74 52 32 161 56 303 68 39 3 86 9 105 14 54 12 219 3 279 -15z
m151 -85 c0 -5 7 -10 15 -10 8 0 15 -4 15 -10 0 -5 -4 -10 -10 -10 -5 0 -10
-6 -10 -14 0 -10 -17 -17 -54 -21 -61 -8 -93 -2 -61 11 11 4 36 20 55 36 36
30 50 34 50 18z m-413 -106 c-3 -3 -12 -4 -19 -1 -8 3 -5 6 6 6 11 1 17 -2 13
-5z m40 0 c-3 -3 -12 -4 -19 -1 -8 3 -5 6 6 6 11 1 17 -2 13 -5z m1285 -184
c53 0 62 -16 19 -35 -14 -6 -26 -25 -34 -52 -7 -28 -15 -39 -21 -33 -12 9 -16
10 -47 10 -20 0 -21 4 -16 50 7 60 14 73 34 66 8 -3 37 -6 65 -6z m-1132 -91
l40 -41 -20 -28 c-13 -18 -35 -31 -67 -39 -26 -7 -59 -18 -73 -24 -14 -6 -68
-14 -120 -18 -52 -3 -129 -12 -170 -19 -41 -6 -96 -10 -122 -7 -96 9 -157 85
-99 124 86 58 118 66 298 73 95 4 176 10 180 13 3 4 30 7 60 7 49 0 56 -3 93
-41z m866 -467 c-8 -16 -23 -32 -31 -36 -21 -8 -17 3 15 42 30 37 37 35 16 -6z
m-1768 -431 c3 -8 -1 -12 -9 -9 -7 2 -15 10 -17 17 -3 8 1 12 9 9 7 -2 15 -10
17 -17z m24 -58 c10 -3 15 -9 12 -14 -3 -5 4 -9 16 -9 11 0 23 -7 26 -15 9
-21 24 -19 24 4 0 19 2 19 37 5 20 -9 46 -28 57 -42 12 -15 29 -35 39 -44 9
-10 17 -22 17 -28 0 -5 6 -10 13 -11 6 -1 1 -4 -13 -9 -24 -7 -24 -8 -5 -15
11 -5 23 -13 27 -19 4 -6 24 -15 45 -21 23 -6 42 -19 48 -33 5 -12 18 -22 29
-22 10 0 39 -11 65 -25 25 -13 60 -29 76 -36 l30 -11 -30 -12 c-25 -11 -38
-10 -83 5 -29 10 -66 27 -81 39 -16 11 -34 20 -41 20 -15 0 -71 46 -64 53 3 2
-7 8 -23 12 -15 3 -47 20 -71 36 -23 16 -50 29 -58 29 -7 0 -14 6 -14 14 0 8
-10 16 -22 18 -12 2 -23 9 -26 15 -3 10 9 11 45 7 l48 -5 -25 18 c-13 10 -33
26 -42 36 -10 9 -21 17 -25 17 -5 0 -26 15 -48 32 -22 17 -31 27 -20 23 11 -4
28 -10 37 -12z"/>
<path d="M4157 4898 c-3 -13 -4 -36 -1 -53 3 -16 6 -41 8 -54 1 -13 9 -29 17
-35 8 -6 21 -24 29 -40 26 -50 79 -53 87 -5 1 8 9 29 18 45 17 33 20 64 5 64
-6 0 -16 11 -22 25 -6 14 -18 25 -26 25 -8 0 -12 6 -8 15 3 9 0 15 -9 15 -8 0
-15 5 -15 10 0 6 -18 10 -39 10 -32 0 -40 -4 -44 -22z"/>
<path d="M2225 4730 c-4 -17 -12 -30 -18 -30 -15 0 -39 -53 -35 -77 1 -10 -1
-24 -5 -31 -13 -19 21 -27 42 -8 25 23 61 99 61 129 0 16 -8 30 -19 37 -17 8
-20 6 -26 -20z"/>
<path d="M2151 4554 c0 -11 3 -14 6 -6 3 7 2 16 -1 19 -3 4 -6 -2 -5 -13z"/>
<path d="M3505 3850 c3 -5 8 -10 11 -10 2 0 4 5 4 10 0 6 -5 10 -11 10 -5 0
-7 -4 -4 -10z"/>
<path d="M4812 3090 c0 -19 2 -27 5 -17 2 9 2 25 0 35 -3 9 -5 1 -5 -18z"/>
<path d="M4516 1379 c-2 -13 -7 -42 -10 -65 -6 -41 -52 -202 -108 -377 l-32
-99 -150 -155 c-83 -85 -188 -184 -234 -220 -78 -63 -98 -92 -56 -85 24 5 139
76 182 114 19 16 47 31 63 35 16 3 34 15 40 25 8 15 14 17 22 9 26 -26 1 -227
-47 -372 -8 -24 -17 -60 -21 -79 -6 -30 -5 -33 7 -20 18 19 38 70 71 180 40
130 44 148 63 245 10 53 35 130 61 190 25 55 49 120 54 145 9 44 37 142 65
225 7 22 18 65 25 95 6 30 15 68 20 84 12 38 11 117 0 135 -8 12 -11 10 -15
-10z"/>
<path d="M2200 1308 c-11 -18 -25 -57 -31 -88 -6 -30 -17 -84 -24 -120 -8 -36
-16 -96 -20 -135 -13 -161 -22 -231 -32 -250 -23 -44 -41 -245 -56 -642 -3
-73 -3 -73 24 -73 l27 0 6 268 c6 260 21 420 41 423 10 2 17 -8 40 -61 22 -51
64 -123 81 -140 14 -13 15 -12 10 10 -3 14 -10 61 -16 105 -7 44 -23 120 -37
169 -22 77 -24 102 -20 190 3 55 13 146 22 201 29 177 28 175 16 175 -6 0 -20
-15 -31 -32z"/>
<path d="M2965 1038 c-58 -20 -194 -87 -251 -123 -85 -54 -169 -139 -230 -232
-30 -45 -58 -85 -64 -88 -16 -10 -12 -33 8 -37 9 -3 27 -1 40 4 36 13 104 -58
154 -159 57 -118 57 -136 9 -273 -23 -63 -41 -118 -41 -122 0 -4 187 -8 416
-8 l416 0 -7 48 c-8 59 23 180 59 227 25 32 145 128 203 161 30 16 34 17 50 2
10 -9 39 -26 65 -37 33 -14 47 -26 50 -42 3 -22 4 -22 21 -5 24 24 21 55 -5
66 -47 18 -74 48 -188 209 -93 131 -205 245 -278 282 -15 7 -43 23 -63 35 -19
12 -85 34 -145 49 -60 15 -121 34 -136 41 -31 16 -42 16 -83 2z m37 -419 c54
-12 92 -35 82 -51 -3 -5 -14 -6 -25 -3 -10 4 -19 3 -19 0 0 -12 25 -32 37 -28
6 2 14 -1 18 -6 7 -12 -37 -15 -49 -4 -4 4 -22 8 -40 10 -53 3 -107 29 -100
47 3 9 10 16 15 16 5 0 9 7 9 15 0 18 4 18 72 4z m29 -200 c8 -17 6 -19 -20
-19 -16 0 -32 -4 -36 -9 -6 -10 21 -41 36 -41 14 0 11 -16 -9 -41 -18 -21 -20
-21 -42 -6 -30 21 -61 7 -53 -24 5 -19 4 -20 -16 -7 -12 7 -29 28 -38 46 -16
34 -34 39 -79 22 -18 -7 -31 -7 -37 -1 -15 15 9 38 46 47 17 3 48 17 68 30 57
36 161 38 180 3z"/>
<path d="M5195 469 c-16 -6 -85 -21 -153 -34 -68 -13 -126 -25 -129 -28 -10
-11 19 -47 43 -53 14 -4 44 -1 67 5 23 6 80 18 127 26 112 21 130 29 130 59 0
35 -28 43 -85 25z"/>
<path d="M5321 83 c-7 -27 -14 -56 -17 -65 -4 -13 0 -18 15 -18 15 0 21 9 26
38 4 20 9 49 11 65 4 19 1 27 -9 27 -9 0 -19 -18 -26 -47z"/>
<path d="M6736 56 c-3 -13 -9 -31 -12 -40 -4 -11 -1 -16 10 -16 12 0 16 10 16
40 0 45 -5 51 -14 16z"/>
<path d="M4152 45 c0 -17 2 -22 5 -12 2 9 2 23 0 30 -3 6 -5 -1 -5 -18z"/>
</g>
</svg>
